<?xml version="1.0" encoding="UTF-8" standalone="no"?>
<!-- Created with Inkscape (http://www.inkscape.org/) -->

<svg
   xmlns:svg="http://www.w3.org/2000/svg"
   xmlns="http://www.w3.org/2000/svg"
   version="1.1"
   width="290"
   height="160"
   id="svg3120">
  <defs
     id="defs3122" />
  <g
     transform="translate(-389.9615,-535.13274)"
     id="layer1">
    <path
       d="m 578.6285,590.14474 0.048,-30.992 -31.004,0.012 -18.302,-18.26 -2.566,2.588 3.92,3.942 c 0.528,0.522 0.528,1.358 0,1.89 l -4.096,4.086 c -0.514,0.52 -1.356,0.516 -1.876,0 l -3.908,-3.964 c -0.118,0.126 -1.412,1.428 -2.67,2.658 1.786,1.784 7.07,7.062 7.07,7.062 -7.976,0.016 -20.034,-0.024 -27.834,0 l -0.07,4.376 c 0,0.742 -0.59,1.334 -1.342,1.334 h -5.784 c -0.736,0 -1.318,-0.59 -1.318,-1.334 v -4.374 h -3.74 l 0.042,95.87 3.698,0.016 v -4.486 c 0,-0.738 0.582,-1.334 1.318,-1.334 h 5.784 c 0.752,0 1.342,0.596 1.342,1.334 v 4.486 l 81.316,-0.036 -0.01,-42.432 7.17,7.146 2.622,-2.584 -3.878,-3.922 c -0.534,-0.534 -0.534,-1.378 0,-1.894 l 4.088,-4.102 c 0.514,-0.516 1.386,-0.598 1.812,-0.074 l 3.124,3.2 0.788,0.75 2.652,-2.58 c -5.51,-5.562 -12.79,-12.772 -18.396,-18.382 l 0,0 z m -81.286,43.01 c 0,0.738 -0.59,1.334 -1.342,1.334 h -5.784 c -0.736,0 -1.318,-0.596 -1.318,-1.334 v -6.61 c 0,-0.738 0.582,-1.342 1.318,-1.342 h 5.784 c 0.752,0 1.342,0.604 1.342,1.342 v 6.61 l 0,0 z m 0,-22.798 c 0,0.748 -0.59,1.354 -1.342,1.354 h -5.784 c -0.736,0 -1.318,-0.606 -1.318,-1.354 v -6.598 c 0,-0.744 0.582,-1.334 1.318,-1.334 h 5.784 c 0.752,0 1.342,0.59 1.342,1.334 v 6.598 l 0,0 z m 0,-22.78 c 0,0.738 -0.59,1.344 -1.342,1.344 h -5.784 c -0.736,0 -1.318,-0.606 -1.318,-1.344 v -6.596 c 0,-0.762 0.582,-1.354 1.318,-1.354 h 5.784 c 0.752,0 1.342,0.59 1.342,1.354 v 6.596 l 0,0 z m 49.56,-22.116 -4.086,4.084 c -0.538,0.518 -1.382,0.518 -1.894,0 l -4.68,-4.666 c -0.522,-0.534 -0.522,-1.378 0,-1.896 l 4.084,-4.092 c 0.526,-0.516 1.376,-0.516 1.894,0 l 4.682,4.666 c 0.512,0.522 0.512,1.37 0,1.904 l 0,0 z m 16.118,16.114 -4.08,4.082 c -0.548,0.526 -1.378,0.526 -1.906,0 l -4.672,-4.672 c -0.518,-0.52 -0.518,-1.382 0,-1.898 l 4.084,-4.078 c 0.522,-0.516 1.382,-0.516 1.904,0 l 4.67,4.666 c 0.514,0.522 0.514,1.38 0,1.9 l 0,0 z m 16.066,16.1 -4.094,4.094 c -0.512,0.524 -1.362,0.524 -1.886,0 l -4.658,-4.676 c -0.514,-0.518 -0.514,-1.374 0,-1.896 l 4.08,-4.078 c 0.522,-0.528 1.368,-0.528 1.878,0 l 4.68,4.668 c 0.542,0.526 0.542,1.378 0,1.888"
       id="path236" />
    <path
       d="m 394.8845,688.42474 h 0.178 0.302 c 0.82,0 1.598,-0.304 1.598,-1.96 v -14.65 l -1.17,-1.604 h -0.83 v -0.488 h 5.492 l 10.052,13.226 h 0.062 v -11.184 c 0,-1.036 -0.638,-1.554 -1.814,-1.554 h -0.512 v -0.488 h 5.042 v 0.488 h -0.368 c -1.198,0 -1.706,0.792 -1.706,1.472 v 17.562 h -1.118 l -12.446,-16.586 h -0.044 v 13.946 c 0,1.554 0.584,1.82 2.082,1.82 h 0.242 v 0.492 h -5.042 v -0.492"
       id="path238" />
    <path
       d="m 416.6985,688.42474 h 2.166 v -18.214 h -2.166 v -0.488 h 14.916 v 5.422 h -0.48 v -0.376 c 0,-2.482 -1.786,-4.556 -4.96,-4.556 h -3.142 v 8.348 h 1.842 c 1.726,0 2.634,-1.016 2.634,-3.61 v -0.296 h 0.482 v 8.618 h -0.482 v -0.624 c 0,-1.944 -0.908,-3.6 -2.634,-3.6 h -1.842 v 9.378 h 3.834 c 4.38,0 5.016,-3.708 5.016,-5.258 v -0.386 h 0.478 v 6.136 h -15.662 v -0.494"
       id="path240" />
    <path
       d="m 436.8225,670.21074 v -0.488 h 7.714 v 0.488 h -1.608 l 4.162,12.808 h 0.048 l 2.292,-7.324 -1.73,-5.484 h -1.912 v -0.488 h 8.266 v 0.488 h -2.08 l 4.046,12.898 h 0.048 l 3.042,-9.786 c 0.296,-0.932 0.462,-1.592 0.462,-1.968 0,-0.468 -0.242,-1.144 -1.818,-1.144 h -0.176 v -0.488 h 4.906 v 0.488 h -0.236 c -0.732,0 -1.612,0.546 -2.296,2.68 l -5.39,16.47 h -0.644 l -4.132,-12.768 h -0.06 l -4.124,12.768 h -0.67 l -6.354,-19.15 h -1.756"
       id="path242" />
    <path
       d="m 474.9985,688.42474 h 2.166 v -18.214 h -2.166 v -0.488 h 8.728 v 0.488 h -2.404 v 18.214 h 3.074 c 4.716,0 5.784,-2.342 5.784,-5.504 v -0.55 h 0.482 v 6.546 h -15.664 v -0.492"
       id="path244" />
    <path
       d="m 493.9725,688.42474 2.158,0 0,-18.214 -2.158,0 0,-0.488 8.48,0 0,0.488 -2.158,0 0,18.214 2.158,0 0,0.492 -8.48,0 0,-0.492"
       id="polyline246" />
    <path
       d="m 506.2485,688.42474 h 0.186 0.278 c 0.838,0 1.612,-0.304 1.612,-1.96 v -14.65 l -1.174,-1.604 h -0.83 v -0.488 h 5.492 l 10.054,13.226 h 0.066 v -11.184 c 0,-1.036 -0.65,-1.554 -1.814,-1.554 h -0.518 v -0.488 h 5.042 v 0.488 h -0.37 c -1.206,0 -1.708,0.792 -1.708,1.472 v 17.562 h -1.114 l -12.446,-16.586 h -0.04 v 13.946 c 0,1.554 0.578,1.82 2.076,1.82 h 0.246 v 0.492 h -5.042 v -0.492"
       id="path248" />
    <path
       d="m 528.0705,688.42474 h 2.164 v -18.214 h -2.164 v -0.488 h 14.906 v 5.422 h -0.48 v -0.376 c 0,-2.482 -1.78,-4.556 -4.962,-4.556 h -3.152 v 8.348 h 1.846 c 1.74,0 2.646,-1.016 2.646,-3.61 v -0.296 h 0.474 v 8.618 h -0.474 v -0.624 c 0,-1.944 -0.906,-3.6 -2.646,-3.6 h -1.846 v 9.378 h 3.844 c 4.38,0 5.016,-3.708 5.016,-5.258 v -0.386 h 0.484 v 6.136 h -15.656 v -0.494"
       id="path250" />
    <path
       d="m 572.6965,676.30074 h -0.474 c -0.44,-2.79 -2.704,-6.534 -5.746,-6.534 -2.68,0 -4.292,2.604 -4.292,9.556 0,6.618 1.178,9.536 4.212,9.536 3.446,0 5.448,-3.484 5.824,-5.692 l 0.152,-0.926 h 0.4 v 6.676 h -0.4 c -0.112,-0.41 -0.424,-1.116 -0.986,-1.116 -0.856,0 -2.048,1.558 -5.25,1.558 -5.286,0 -8.432,-4.832 -8.432,-9.72 0,-4.852 3.31,-10.352 8.77,-10.352 1.928,0 3.744,1.386 4.864,1.386 0.554,0 0.854,-0.242 0.882,-0.82 h 0.474 v 6.448"
       id="path252" />
    <path
       d="m 577.7145,688.42474 2.164,0 0,-18.214 -2.164,0 0,-0.488 8.49,0 0,0.488 -2.166,0 0,18.214 2.166,0 0,0.492 -8.49,0 0,-0.492"
       id="polyline254" />
    <path
       d="m 589.9925,688.42474 h 0.186 0.294 c 0.82,0 1.592,-0.304 1.592,-1.96 v -14.65 l -1.174,-1.604 h -0.82 v -0.488 h 5.484 l 10.056,13.226 h 0.06 v -11.184 c 0,-1.036 -0.634,-1.554 -1.816,-1.554 h -0.5 v -0.488 h 5.036 v 0.488 h -0.376 c -1.196,0 -1.704,0.792 -1.704,1.472 v 17.562 h -1.12 l -12.424,-16.586 h -0.062 v 13.946 c 0,1.554 0.592,1.82 2.08,1.82 h 0.25 v 0.492 h -5.044 v -0.492"
       id="path256" />
    <path
       d="m 611.8085,688.42474 h 2.162 v -18.214 h -2.162 v -0.488 h 14.904 v 5.422 h -0.476 v -0.376 c 0,-2.482 -1.784,-4.556 -4.958,-4.556 h -3.146 v 8.348 h 1.838 c 1.738,0 2.646,-1.016 2.646,-3.61 v -0.296 h 0.478 v 8.618 h -0.478 v -0.624 c 0,-1.944 -0.908,-3.6 -2.646,-3.6 h -1.838 v 9.378 h 3.844 c 4.372,0 5.008,-3.708 5.008,-5.258 v -0.386 h 0.482 v 6.136 h -15.658 v -0.494"
       id="path258" />
    <path
       d="m 632.0105,688.42474 h 0.11 c 1.786,0 2.056,-1.164 2.056,-2.342 v -15.874 h -2.032 v -0.488 h 6.828 l 4.422,13.176 h 0.054 l 4.506,-13.176 h 6.442 v 0.488 h -2.002 v 18.214 h 2.002 v 0.492 h -8.458 v -0.49 h 2.286 v -17.726 h -0.052 l -6.208,18.218 h -0.726 l -6.374,-18.54 h -0.044 v 15.456 c 0,2.208 0.548,2.592 1.99,2.592 h 0.376 v 0.492 h -5.174 v -0.492"
       id="path260" />
    <path
       d="m 657.8365,688.42474 h 0.344 c 1.01,-0.074 1.494,-0.738 1.822,-1.632 l 6.186,-17.504 h 0.388 l 7.154,19.136 h 1.308 v 0.492 h -7.946 v -0.492 h 2.132 l -1.942,-5.668 h -5.178 l -1.286,3.848 c -0.078,0.212 -0.19,0.512 -0.19,0.82 0,0.894 0.756,1 1.286,1 h 0.75 v 0.492 h -4.832 v -0.492 l 0.004,0 z m 9.224,-6.16 -2.314,-6.906 h -0.056 l -2.376,6.906 h 4.746"
       id="path262" />
  </g>
</svg>
